<svg xmlns="http://www.w3.org/2000/svg" viewBox="0 0 1200 300" preserveAspectRatio="xMidYMax slice">
  <defs>
    <linearGradient id="skylineGrad" x1="0%" y1="0%" x2="0%" y2="100%">
      <stop offset="0%" style="stop-color:#f7c12d;stop-opacity:0.15"/>
      <stop offset="100%" style="stop-color:#f7c12d;stop-opacity:0.02"/>
    </linearGradient>
  </defs>

  <!-- Background mountains and hills -->
  <path fill="url(#skylineGrad)" d="
    M0,300
    L0,250
    Q50,240 100,220
    Q150,200 180,180
    Q200,165 220,170
    Q250,175 280,160
    Q320,140 350,150
    Q380,160 400,145
    L420,130
    Q440,115 460,120
    Q500,130 530,110
    Q560,90 580,100
    Q600,110 620,95
    Q650,75 680,85
    Q720,100 750,80
    Q780,60 800,70
    Q830,85 860,65
    Q890,45 910,55
    Q940,70 970,50
    Q1000,30 1020,45
    Q1050,65 1080,55
    Q1110,45 1140,60
    Q1170,80 1200,70
    L1200,300
    Z
  "/>

  <!-- Sugarloaf Mountain (Pão de Açúcar) - right side -->
  <path fill="url(#skylineGrad)" d="
    M850,300
    L850,180
    Q860,140 880,110
    Q900,85 920,80
    Q940,75 960,90
    Q980,110 990,140
    Q1000,170 1000,200
    L1000,300
    Z
  "/>

  <!-- Christ the Redeemer silhouette - center -->
  <g transform="translate(580, 60)">
    <!-- Base/mountain -->
    <path fill="url(#skylineGrad)" d="
      M-60,240
      Q-40,180 0,120
      Q40,180 60,240
      Z
    "/>
    <!-- Statue -->
    <path fill="url(#skylineGrad)" d="
      M0,120
      L0,80
      L-35,90
      L-35,95
      L-5,85
      L-5,50
      L-3,30
      L0,20
      L3,30
      L5,50
      L5,85
      L35,95
      L35,90
      L0,80
      Z
    "/>
  </g>

  <!-- City buildings silhouette -->
  <path fill="url(#skylineGrad)" d="
    M100,300 L100,230 L115,230 L115,220 L130,220 L130,235 L145,235 L145,210 L160,210 L160,225 L175,225 L175,215 L190,215 L190,240 L205,240 L205,300 Z
    M250,300 L250,225 L265,225 L265,215 L280,215 L280,230 L295,230 L295,205 L310,205 L310,220 L325,220 L325,235 L340,235 L340,300 Z
    M1050,300 L1050,210 L1065,210 L1065,195 L1080,195 L1080,215 L1095,215 L1095,200 L1110,200 L1110,220 L1125,220 L1125,230 L1140,230 L1140,300 Z
  "/>
</svg>