<?xml version="1.0" encoding="UTF-8"?>
<svg id="Layer_2" data-name="Layer 2" xmlns="http://www.w3.org/2000/svg" xmlns:xlink="http://www.w3.org/1999/xlink" viewBox="0 0 601.43 841.17">
  <defs>
    <style>
      .cls-1 {
        fill: none;
      }

      .cls-2 {
        fill: #fff;
      }

      .cls-3 {
        fill: url(#New_Pattern_Swatch_1);
      }
    </style>
    <pattern id="New_Pattern_Swatch_1" data-name="New Pattern Swatch 1" x="0" y="0" width="151.55" height="151.55" patternTransform="translate(-.18 -2.54)" patternUnits="userSpaceOnUse" viewBox="0 0 151.55 151.55">
      <g>
        <rect class="cls-1" width="151.55" height="151.55"/>
        <path class="cls-2" d="M7.65,28.5c.07,0,.15-.02.21-.05l29.64-14.1s.05-.04.08-.06c.03-.02.07-.04.09-.07,0,0,.02-.02.02-.03.07-.08.11-.17.11-.28,0-.13-.05-.24-.12-.33L31.1,0h-1.11l5.44,11.21L24.81,0h-1.38l13.03,13.74-28.3,13.46V0h-1v27.2l-7.15-3.4v1.11l7.44,3.54c.07.03.14.05.21.05Z"/>
        <path class="cls-2" d="M45.34,9.34s.06.06.1.09c.03.02.06.04.09.06.01,0,.02.02.03.02.05.02.11.03.17.03.07,0,.15-.02.21-.05.02,0,.03-.02.05-.03,0,0,.02,0,.02,0L59.71,0h-1.76l-11.94,8.23-2.44-8.23h-1.04l1.8,6.07-4.11-6.07h-1.21l6.31,9.31s.02.02.03.03Z"/>
        <path class="cls-2" d="M144.4,0h-1v27.2l-28.3-13.46,13.03-13.74h-1.38l-10.62,11.21,5.44-11.21h-1.11l-6.64,13.68s0,.03-.01.05c0,.02-.01.04-.02.06-.01.05-.01.11,0,.17,0,.01,0,.02,0,.03,0,0,0,0,0,.01.02.07.04.13.08.19,0,.01.02.02.03.03.03.03.05.06.08.08,0,0,.02,0,.03.01.01,0,.02.02.04.03l29.64,14.1c.07.03.14.05.21.05s.15-.02.21-.05l7.44-3.54v-1.11l-7.15,3.4V0Z"/>
        <path class="cls-2" d="M105.57,9.45s.03.02.05.03c.07.03.14.05.21.05.06,0,.11,0,.17-.03.01,0,.02-.02.03-.02.03-.01.06-.04.09-.06.03-.03.07-.05.1-.09,0-.01.02-.02.03-.03l6.31-9.31h-1.21l-4.11,6.07,1.8-6.07h-1.04l-2.44,8.23L93.6,0h-1.76l13.71,9.44s.02,0,.02,0Z"/>
        <path class="cls-2" d="M37.81,137.66c0-.11-.05-.21-.11-.28,0-.01-.02-.02-.02-.03-.02-.03-.06-.05-.09-.07-.03-.02-.05-.05-.08-.06l-29.64-14.1c-.07-.03-.14-.05-.21-.05s-.15.02-.21.05l-7.44,3.54v1.11l7.15-3.4v27.2h1v-27.2l28.3,13.46-13.03,13.74h1.38l10.62-11.21-5.44,11.21h1.11l6.58-13.57c.08-.09.12-.2.12-.33Z"/>
        <path class="cls-2" d="M45.99,142.11s-.03-.02-.05-.03c-.07-.03-.14-.05-.21-.05-.06,0-.11,0-.17.03-.01,0-.02.02-.03.02-.03.01-.06.04-.09.06-.03.03-.07.05-.1.09,0,.01-.02.02-.03.03l-6.31,9.31h1.21l4.11-6.07-1.8,6.07h1.04l2.44-8.23,11.94,8.23h1.76l-13.71-9.44s-.02,0-.02,0Z"/>
        <path class="cls-2" d="M143.9,123.06c-.07,0-.15.02-.21.05l-29.64,14.1s-.02.02-.04.03c-.01,0-.02,0-.03.01-.03.02-.06.05-.08.08-.01.01-.02.02-.03.03-.04.06-.07.12-.08.19,0,0,0,0,0,.01,0,.01,0,.02,0,.03,0,.06,0,.11,0,.17,0,.02,0,.04.02.06,0,.02,0,.04.01.05l6.64,13.68h1.11l-5.44-11.21,10.62,11.21h1.38l-13.03-13.74,28.3-13.46v27.2h1v-27.2l7.15,3.4v-1.11l-7.44-3.54c-.07-.03-.14-.05-.21-.05Z"/>
        <path class="cls-2" d="M106.21,142.22s-.06-.06-.1-.09c-.03-.02-.06-.04-.09-.06-.01,0-.02-.02-.03-.02-.05-.02-.11-.03-.17-.03-.07,0-.15.02-.21.05-.02,0-.03.02-.05.03,0,0-.02,0-.02,0l-13.71,9.44h1.76l11.94-8.23,2.44,8.23h1.04l-1.8-6.07,4.11,6.07h1.21l-6.31-9.31s-.02-.02-.03-.03Z"/>
        <path class="cls-2" d="M146.64,37.69l4.91-3.38v1.21l-3.7,2.54,3.7,2.13h0v1.15h0s-4.2-2.42-4.2-2.42l-2.49,31.24,6.69-1.6v1.03h0s-3.98.95-3.98.95l3.98.29v1l-7.28-.52s-.05-.01-.07-.02c-.03,0-.06-.01-.08-.02-.03-.01-.06-.03-.08-.05-.02-.01-.04-.02-.05-.03,0,0,0,0,0-.01-.03-.03-.05-.07-.08-.11-.02.04-.05.08-.08.11,0,0,0,0,0,.01-.02.01-.04.02-.05.03-.03.02-.05.04-.08.05-.03.01-.05.01-.08.02-.02,0-.05.02-.07.02l-60.77,4.37,60.77,4.37s.03,0,.05.01c.02,0,.04,0,.06.01.06.02.1.04.15.08,0,0,.02,0,.03.02,0,0,0,0,0,.01.03.03.06.07.08.11.02-.04.04-.08.08-.11,0,0,0,0,0-.01,0,0,.02,0,.03-.02.05-.03.1-.06.15-.08.02,0,.04-.01.06-.01.02,0,.03-.01.05-.01l7.28-.52v1l-3.98.29,3.98.95h0v1.03l-6.69-1.6,2.49,31.24,4.2-2.42h0v1.15h0s-3.7,2.13-3.7,2.13l3.7,2.55v1.21l-4.91-3.38s-.04-.05-.06-.07c-.03-.03-.06-.06-.08-.09-.02-.04-.03-.08-.04-.12,0-.03-.03-.06-.03-.09l-2.53-31.67-2.52,31.67s-.02.06-.03.09c-.01.04-.02.08-.04.12-.02.04-.05.06-.08.09-.02.02-.04.05-.06.07l-27.03,18.62s-.02,0-.02,0c-.02.01-.03.02-.05.03-.07.03-.14.05-.21.05-.06,0-.11,0-.17-.03-.01,0-.02-.02-.03-.02-.03-.01-.06-.04-.09-.06-.04-.03-.07-.05-.1-.09,0-.01-.02-.02-.03-.03l-34.17-50.44,26.55,54.7c.08.09.12.2.12.33,0,.11-.05.21-.11.28,0,.01-.02.02-.02.03-.03.03-.06.05-.09.07-.03.02-.05.05-.08.06l-29.64,14.1c-.07.03-.14.05-.21.05s-.15-.02-.21-.05l-29.64-14.1s-.02-.02-.04-.03c-.01,0-.02,0-.03-.01-.03-.02-.06-.05-.08-.08-.01-.01-.02-.02-.03-.03-.04-.06-.07-.12-.08-.19,0,0,0,0,0-.01,0-.01,0-.02,0-.03,0-.06,0-.11,0-.17,0-.02,0-.04.02-.06,0-.02,0-.04.01-.05l26.6-54.81-34.17,50.44s-.02.02-.03.03c-.03.03-.06.06-.1.09-.03.02-.06.04-.09.06-.01,0-.02.02-.03.02-.05.02-.11.03-.17.03-.07,0-.15-.02-.21-.05-.02,0-.03-.02-.05-.03,0,0-.02,0-.02,0l-27.03-18.62s-.04-.05-.06-.07c-.03-.03-.06-.06-.08-.09-.02-.04-.03-.08-.04-.12,0-.03-.03-.06-.03-.09l-2.52-31.67-2.52,31.67s-.02.06-.03.09c-.01.04-.02.08-.04.12-.02.04-.05.06-.08.09-.02.02-.04.05-.06.07l-4.91,3.39v-1.21l3.7-2.55-3.7-2.13h0v-1.15h0s4.2,2.42,4.2,2.42l2.49-31.24-6.69,1.6v-1.03h0l3.98-.95-3.98-.29v-1l7.28.52s.03,0,.05.01c.02,0,.04,0,.06.01.05.02.1.04.15.08,0,0,.02,0,.03.02,0,0,0,0,0,.01.03.03.05.07.08.11.02-.04.05-.08.08-.11,0,0,0,0,0-.01,0,0,.02,0,.03-.02.05-.03.09-.06.15-.08.02,0,.04-.01.06-.01.02,0,.03-.01.05-.01l60.77-4.37-60.77-4.37s-.05-.01-.07-.02c-.03,0-.06-.01-.08-.02-.03-.01-.06-.03-.08-.05-.02-.01-.04-.02-.05-.03,0,0,0,0,0-.01-.03-.03-.06-.07-.08-.11-.02.04-.04.08-.08.11,0,0,0,0,0,.01-.02.01-.04.02-.05.03-.03.02-.05.04-.08.05-.03.01-.05.01-.08.02-.02,0-.04.02-.07.02l-7.28.52v-1l3.98-.29-3.98-.95h0v-1.03l6.69,1.6-2.49-31.24-4.2,2.42h0v-1.15h0s3.7-2.13,3.7-2.13l-3.7-2.55v-1.21l4.91,3.38s.04.05.06.07c.03.03.06.06.08.09.02.04.03.08.04.12,0,.03.03.06.03.09l2.52,31.67,2.52-31.67s.02-.06.03-.09c.01-.04.02-.08.04-.12.02-.04.05-.06.08-.09.02-.02.04-.05.06-.07l27.03-18.62s.02,0,.03-.01c.01,0,.03-.02.04-.03.04-.02.08-.02.12-.03.01,0,.02,0,.03,0,.07,0,.14,0,.21.02,0,0,.01,0,.02,0,.01,0,.02.02.04.02.05.02.09.05.13.08.02.02.03.03.05.05.01.01.03.02.04.04l34.17,50.44L45.69,14.83s0-.03-.01-.05c0-.02-.01-.04-.02-.06-.01-.06-.02-.11,0-.17,0-.01,0-.02,0-.03,0,0,0,0,0-.01.01-.07.04-.13.08-.19,0-.01.02-.02.03-.03.03-.03.05-.06.08-.08.01,0,.03-.01.05-.02,0,0,.01-.01.02-.02L75.56.06s.06-.01.09-.02c.04-.01.08-.02.12-.02s.08.01.12.02c.03,0,.06,0,.09.02l29.64,14.1s.01.01.02.02c.01,0,.03.01.05.02.03.02.06.05.08.08.01.01.02.02.03.03.04.06.07.12.08.19,0,0,0,0,0,.01,0,.01,0,.02,0,.03,0,.06,0,.11,0,.17,0,.02,0,.04-.02.06,0,.02,0,.04-.01.05l-26.6,54.81,34.17-50.44s.02-.02.04-.04c.01-.02.03-.03.05-.05.04-.04.08-.06.13-.08.01,0,.02-.02.03-.02,0,0,.01,0,.02,0,.07-.02.14-.03.21-.02.01,0,.02,0,.03,0,.04,0,.08.01.12.03.02,0,.03.02.04.03,0,0,.02,0,.03.01l27.03,18.62s.04.05.06.07c.03.03.06.06.08.09.02.04.03.08.04.12,0,.03.03.06.03.09l2.52,31.67,2.53-31.67s.02-.06.03-.09c.01-.04.02-.08.04-.12.02-.04.05-.06.08-.09.02-.02.04-.05.06-.07ZM142.93,70.17l-2.49-31.24-37.51,21.66,27.39,6.56,12.62,3.02ZM139.94,38.06l-25.81-17.78-11.7,39.43,37.51-21.66ZM112.45,22.44l-35.04,51.72,23.76-13.72,7.72-26.02,3.56-11.98ZM75.28,77.86l-27.28,56.21,27.28-28.77v-27.44ZM103.55,134.06l-27.27-56.21v27.44l27.27,28.77ZM48,17.3l27.28,56.2v-27.43l-27.28-28.77ZM103.55,17.3l-6.23,6.57-21.05,22.2v27.43l27.28-56.21ZM104.58,14.77L76.28,1.3v43.32l12.52-13.2,15.78-16.65ZM46.98,14.77l16.05,16.93,12.25,12.92V1.3l-28.3,13.46ZM39.1,22.44l3.56,11.98,7.72,26.02,6.85,3.96,16.91,9.76L39.1,22.44ZM21.24,67.15l27.39-6.56L11.11,38.93l-2.49,31.24,12.62-3.02ZM11.61,38.06l37.51,21.66-11.7-39.43-25.81,17.78ZM11.33,70.55l62.31,4.48-18.47-10.67-5.29-3.05-21.68,5.19-16.88,4.04ZM8.62,81.2l2.49,31.24,37.51-21.66-27.39-6.56-12.62-3.02ZM11.33,80.82l6.99,1.68,31.56,7.56,23.76-13.72-62.31,4.48ZM11.61,113.31l25.81,17.78,11.7-39.43-37.51,21.66ZM39.1,128.93l35.04-51.73-23.76,13.72-7.72,26.02-3.56,11.98ZM46.98,136.6l28.3,13.46v-43.31l-12.25,12.92-16.05,16.93ZM104.58,136.6l-15.78-16.65-12.52-13.2v43.31l28.3-13.46ZM130.32,84.22l-27.39,6.56.23.13,37.28,21.52,2.49-31.24-12.62,3.02ZM112.45,128.93l-3.56-11.98-7.72-26.02-23.76-13.72,35.04,51.73ZM139.94,113.31l-37.51-21.66,11.7,39.43,25.81-17.78ZM140.23,80.82l-62.31-4.48,23.76,13.72,31.56-7.56,6.99-1.68ZM140.23,70.55l-6.99-1.68-31.56-7.56-5.11,2.95-18.64,10.76,62.31-4.48Z"/>
      </g>
    </pattern>
  </defs>
  <g id="Layer_1-2" data-name="Layer 1">
    <rect class="cls-3" width="601.43" height="841.17"/>
  </g>
</svg>